<svg width="100%" viewBox="0 0 1100 520" xmlns="http://www.w3.org/2000/svg" style="font-family:-apple-system,BlinkMacSystemFont,'Malgun Gothic','Apple SD Gothic Neo',sans-serif">
<defs>
  <marker id="arrow" viewBox="0 0 10 10" refX="8" refY="5" markerWidth="6" markerHeight="6" orient="auto-start-reverse">
    <path d="M2 1L8 5L2 9" fill="none" stroke="context-stroke" stroke-width="1.5" stroke-linecap="round" stroke-linejoin="round"/>
  </marker>
</defs>

<!-- 배경 -->
<rect x="0" y="0" width="1100" height="520" fill="#fafaf7"/>

<!-- 제목 -->
<text x="550" y="36" text-anchor="middle" font-size="17" font-weight="700" fill="#1a2744" letter-spacing="0.5">FF | Factcheck-Finger  기술 아키텍처</text>

<!-- ── 1열: Chrome Extension ─────────────────────── -->
<rect x="20" y="56" width="185" height="234" rx="12" fill="#eef2fb" stroke="#003087" stroke-width="1"/>
<text x="112" y="78" text-anchor="middle" font-size="10" font-weight="700" fill="#003087" letter-spacing="1.5">CHROME EXTENSION</text>

<rect x="34" y="90" width="157" height="38" rx="7" fill="#fff" stroke="#c8d8f0" stroke-width="0.8"/>
<text x="112" y="105" text-anchor="middle" font-size="12" font-weight="600" fill="#0d1b2a">content.js</text>
<text x="112" y="120" text-anchor="middle" font-size="10" fill="#4a607a">페이지 배지 + 본문 추출</text>

<rect x="34" y="138" width="157" height="38" rx="7" fill="#fff" stroke="#c8d8f0" stroke-width="0.8"/>
<text x="112" y="153" text-anchor="middle" font-size="12" font-weight="600" fill="#0d1b2a">popup.js</text>
<text x="112" y="168" text-anchor="middle" font-size="10" fill="#4a607a">팝업 UI + 결과 렌더링</text>

<rect x="34" y="186" width="157" height="38" rx="7" fill="#fff" stroke="#c8d8f0" stroke-width="0.8"/>
<text x="112" y="201" text-anchor="middle" font-size="12" font-weight="600" fill="#0d1b2a">background.js</text>
<text x="112" y="216" text-anchor="middle" font-size="10" fill="#4a607a">Service Worker · API 중계</text>

<rect x="34" y="234" width="157" height="42" rx="7" fill="#eef2fb" stroke="#c8d8f0" stroke-width="0.5"/>
<text x="112" y="250" text-anchor="middle" font-size="10" fill="#003087">Manifest V3</text>
<text x="112" y="267" text-anchor="middle" font-size="10" fill="#003087">Vanilla JS</text>

<!-- 화살표 → Backend -->
<line x1="207" y1="173" x2="243" y2="173" stroke="#003087" stroke-width="1.5" marker-end="url(#arrow)"/>
<text x="225" y="167" text-anchor="middle" font-size="10" fill="#6a80a0">HTTP</text>

<!-- ── 2열: FastAPI Backend ──────────────────────── -->
<rect x="245" y="56" width="185" height="234" rx="12" fill="#eef2fb" stroke="#003087" stroke-width="1"/>
<text x="337" y="76" text-anchor="middle" font-size="10" font-weight="700" fill="#003087" letter-spacing="1.5">FASTAPI BACKEND</text>
<text x="337" y="91" text-anchor="middle" font-size="10" fill="#6a80a0">localhost : 8000</text>

<rect x="259" y="100" width="157" height="36" rx="7" fill="#fff" stroke="#c8d8f0" stroke-width="0.8"/>
<text x="337" y="114" text-anchor="middle" font-size="11" font-weight="600" fill="#0d1b2a">/api/analyze</text>
<text x="337" y="128" text-anchor="middle" font-size="10" fill="#4a607a">LLM 분석 + DB 저장</text>

<rect x="259" y="146" width="157" height="36" rx="7" fill="#fff" stroke="#c8d8f0" stroke-width="0.8"/>
<text x="337" y="160" text-anchor="middle" font-size="11" font-weight="600" fill="#0d1b2a">/api/nlp_match</text>
<text x="337" y="174" text-anchor="middle" font-size="10" fill="#4a607a">NER + 임베딩 대조</text>

<rect x="259" y="192" width="157" height="36" rx="7" fill="#fff" stroke="#c8d8f0" stroke-width="0.8"/>
<text x="337" y="206" text-anchor="middle" font-size="11" font-weight="600" fill="#0d1b2a">/api/similar/naver</text>
<text x="337" y="220" text-anchor="middle" font-size="10" fill="#4a607a">유사 기사 검색</text>

<rect x="259" y="238" width="157" height="42" rx="7" fill="#eef2fb" stroke="#c8d8f0" stroke-width="0.5"/>
<text x="337" y="254" text-anchor="middle" font-size="10" fill="#003087">APScheduler</text>
<text x="337" y="271" text-anchor="middle" font-size="10" fill="#003087">feedparser</text>

<!-- 화살표 Backend → 3열 -->
<line x1="432" y1="118" x2="464" y2="96" stroke="#003087" stroke-width="1.5" marker-end="url(#arrow)"/>
<line x1="432" y1="164" x2="464" y2="196" stroke="#003087" stroke-width="1.5" marker-end="url(#arrow)"/>
<line x1="432" y1="210" x2="464" y2="318" stroke="#003087" stroke-width="1.5" marker-end="url(#arrow)"/>

<!-- ── 3열: External Services ─────────────────────── -->
<!-- Supabase -->
<rect x="466" y="56" width="185" height="88" rx="12" fill="#f4f0fe" stroke="#7c5cbf" stroke-width="1"/>
<text x="558" y="78" text-anchor="middle" font-size="11" font-weight="700" fill="#5b3fa8" letter-spacing="0.5">SUPABASE</text>
<text x="558" y="95" text-anchor="middle" font-size="11" fill="#0d1b2a">PostgreSQL + pgvector</text>
<text x="558" y="111" text-anchor="middle" font-size="10" fill="#7c5cbf">articles · sources · news_cache</text>
<text x="558" y="127" text-anchor="middle" font-size="10" fill="#5b3fa8">임베딩 벡터 저장 / 조회</text>

<!-- CNU Claude -->
<rect x="466" y="158" width="185" height="74" rx="12" fill="#fff8ee" stroke="#c4870a" stroke-width="1"/>
<text x="558" y="181" text-anchor="middle" font-size="11" font-weight="700" fill="#a06508" letter-spacing="0.5">CNU API GATEWAY</text>
<text x="558" y="198" text-anchor="middle" font-size="11" fill="#0d1b2a">Claude Sonnet 4.6</text>
<text x="558" y="215" text-anchor="middle" font-size="10" fill="#a06508">요약 · 용어풀이 · 경제지표</text>

<!-- Naver -->
<rect x="466" y="296" width="185" height="56" rx="12" fill="#eaf6ee" stroke="#2e8b4e" stroke-width="1"/>
<text x="558" y="320" text-anchor="middle" font-size="11" font-weight="700" fill="#1e6b38" letter-spacing="0.5">NAVER NEWS API</text>
<text x="558" y="338" text-anchor="middle" font-size="10" fill="#2e8b4e">유사 기사 폴백 검색</text>

<!-- RSS Feeds -->
<rect x="245" y="316" width="185" height="56" rx="12" fill="#fff3ee" stroke="#c2500a" stroke-width="1"/>
<text x="337" y="339" text-anchor="middle" font-size="11" font-weight="700" fill="#993c1d" letter-spacing="0.5">RSS FEEDS</text>
<text x="337" y="357" text-anchor="middle" font-size="10" fill="#c2500a">연합 · 네이버 · 조선 · 한겨레 · KBS · MBC</text>
<line x1="337" y1="314" x2="337" y2="292" stroke="#c2500a" stroke-width="1.5" marker-end="url(#arrow)"/>

<!-- ── 4열: NLP Pipeline ──────────────────────────── -->
<rect x="680" y="56" width="400" height="334" rx="12" fill="#edfaf2" stroke="#2e8b4e" stroke-width="1" stroke-dasharray="6 3"/>
<text x="880" y="82" text-anchor="middle" font-size="11" font-weight="700" fill="#1e6b38" letter-spacing="1">NLP 파이프라인  (LLM 없이 동작)</text>

<!-- 화살표 Backend → NLP -->
<line x1="652" y1="173" x2="678" y2="173" stroke="#2e8b4e" stroke-width="1.5" marker-end="url(#arrow)"/>

<!-- Step 1 -->
<rect x="696" y="100" width="148" height="84" rx="8" fill="#fff" stroke="#a3c8ab" stroke-width="0.8"/>
<text x="770" y="122" text-anchor="middle" font-size="12" font-weight="600" fill="#0d1b2a">문장 분리</text>
<text x="770" y="140" text-anchor="middle" font-size="11" fill="#2e8b4e">KSS</text>
<text x="770" y="158" text-anchor="middle" font-size="10" fill="#4a607a">형태소 분석</text>
<text x="770" y="174" text-anchor="middle" font-size="11" fill="#2e8b4e">KoNLPy (Okt)</text>

<!-- → -->
<line x1="846" y1="142" x2="868" y2="142" stroke="#2e8b4e" stroke-width="1.5" marker-end="url(#arrow)"/>

<!-- Step 2 -->
<rect x="870" y="100" width="188" height="84" rx="8" fill="#fff" stroke="#a3c8ab" stroke-width="0.8"/>
<text x="964" y="122" text-anchor="middle" font-size="12" font-weight="600" fill="#0d1b2a">육하원칙 추출</text>
<text x="964" y="140" text-anchor="middle" font-size="11" fill="#2e8b4e">NER + SRL</text>
<text x="964" y="158" text-anchor="middle" font-size="10" fill="#4a607a">주어 / 목적어 역할 구분</text>
<text x="964" y="174" text-anchor="middle" font-size="10" fill="#4a607a">조사 패턴 기반 분석</text>

<!-- ↓ -->
<line x1="964" y1="186" x2="964" y2="214" stroke="#2e8b4e" stroke-width="1.5" marker-end="url(#arrow)"/>

<!-- Step 3 -->
<rect x="870" y="216" width="188" height="84" rx="8" fill="#fff" stroke="#a3c8ab" stroke-width="0.8"/>
<text x="964" y="238" text-anchor="middle" font-size="12" font-weight="600" fill="#0d1b2a">임베딩 생성</text>
<text x="964" y="256" text-anchor="middle" font-size="11" fill="#2e8b4e">ko-sroberta-multitask</text>
<text x="964" y="272" text-anchor="middle" font-size="10" fill="#4a607a">항목별 벡터  768차원</text>
<text x="964" y="288" text-anchor="middle" font-size="10" fill="#4a607a">의미 유사 단어까지 대응</text>

<!-- ← -->
<line x1="868" y1="258" x2="846" y2="258" stroke="#2e8b4e" stroke-width="1.5" marker-end="url(#arrow)"/>

<!-- Step 4 -->
<rect x="696" y="216" width="148" height="84" rx="8" fill="#fff" stroke="#a3c8ab" stroke-width="0.8"/>
<text x="770" y="238" text-anchor="middle" font-size="12" font-weight="600" fill="#0d1b2a">유사도 비교</text>
<text x="770" y="256" text-anchor="middle" font-size="11" fill="#2e8b4e">코사인 유사도</text>
<text x="770" y="272" text-anchor="middle" font-size="10" fill="#4a607a">3개 이상 일치 필터</text>
<text x="770" y="288" text-anchor="middle" font-size="10" fill="#4a607a">→ 신뢰도 산출</text>

<!-- ↑ NLP → Supabase 저장 -->
<line x1="770" y1="302" x2="770" y2="354" stroke="#2e8b4e" stroke-width="1.2" stroke-dasharray="4 3" marker-end="url(#arrow)"/>
<text x="780" y="334" font-size="10" fill="#2e8b4e">저장</text>

<!-- NLP 저장 도착 레이블 -->
<rect x="696" y="356" width="148" height="26" rx="6" fill="#edfaf2" stroke="#a3c8ab" stroke-width="0.5"/>
<text x="770" y="373" text-anchor="middle" font-size="10" fill="#1e6b38">Supabase news_cache</text>

<!-- ── 하단: 신뢰도 점수 공식 ───────────────────── -->
<rect x="20" y="412" width="646" height="84" rx="12" fill="#fff" stroke="#e4e8f0" stroke-width="1" stroke-dasharray="4 3"/>
<text x="343" y="434" text-anchor="middle" font-size="11" font-weight="700" fill="#003087">신뢰도 점수 산출</text>

<rect x="36" y="446" width="178" height="28" rx="6" fill="#eef2fb" stroke="#003087" stroke-width="0.6"/>
<text x="125" y="464" text-anchor="middle" font-size="11" fill="#003087">DB 일치율  × 50%</text>

<text x="228" y="464" text-anchor="middle" font-size="15" fill="#8fa0b4">+</text>

<rect x="246" y="446" width="178" height="28" rx="6" fill="#eaf6ee" stroke="#2e8b4e" stroke-width="0.6"/>
<text x="335" y="464" text-anchor="middle" font-size="11" fill="#2e8b4e">키워드 매칭률  × 30%</text>

<text x="438" y="464" text-anchor="middle" font-size="15" fill="#8fa0b4">+</text>

<rect x="456" y="446" width="178" height="28" rx="6" fill="#fff8ee" stroke="#c4870a" stroke-width="0.6"/>
<text x="545" y="464" text-anchor="middle" font-size="11" fill="#a06508">클릭베이트 방어  × 20%</text>

<text x="648" y="464" text-anchor="middle" font-size="16" font-weight="700" fill="#003087">=  100점</text>

<text x="343" y="488" text-anchor="middle" font-size="10" fill="#8fa0b4">DB 미매칭(최신 기사) : 키워드 매칭 × 50% + 클릭베이트 방어 × 50%  /  최대 70점 상한 적용</text>
</svg>
